<?xml version="1.0" encoding="UTF-8" standalone="no"?>
<!-- Created with Inkscape (http://www.inkscape.org/) -->

<svg
   xmlns:dc="http://purl.org/dc/elements/1.1/"
   xmlns:cc="http://creativecommons.org/ns#"
   xmlns:rdf="http://www.w3.org/1999/02/22-rdf-syntax-ns#"
   xmlns:svg="http://www.w3.org/2000/svg"
   xmlns="http://www.w3.org/2000/svg"
   xmlns:sodipodi="http://sodipodi.sourceforge.net/DTD/sodipodi-0.dtd"
   xmlns:inkscape="http://www.inkscape.org/namespaces/inkscape"
   width="128"
   height="128"
   viewBox="0 0 128 128"
   id="svg2"
   version="1.1"
   inkscape:version="0.91 r13725"
   sodipodi:docname="icon.svg">
  <defs
     id="defs4" />
  <sodipodi:namedview
     id="base"
     pagecolor="#ffffff"
     bordercolor="#666666"
     borderopacity="1.0"
     inkscape:pageopacity="0.0"
     inkscape:pageshadow="2"
     inkscape:zoom="2.8284271"
     inkscape:cx="8.1056234"
     inkscape:cy="52.442444"
     inkscape:document-units="px"
     inkscape:current-layer="g4279"
     showgrid="false"
     showguides="true"
     inkscape:window-width="1270"
     inkscape:window-height="892"
     inkscape:window-x="880"
     inkscape:window-y="404"
     inkscape:window-maximized="0"
     units="px" />
  <metadata
     id="metadata7">
    <rdf:RDF>
      <cc:Work
         rdf:about="">
        <dc:format>image/svg+xml</dc:format>
        <dc:type
           rdf:resource="http://purl.org/dc/dcmitype/StillImage" />
        <dc:title />
      </cc:Work>
    </rdf:RDF>
  </metadata>
  <g
     inkscape:label="Layer 1"
     inkscape:groupmode="layer"
     id="layer1"
     transform="translate(0,-924.3622)">
    <g
       id="g4279"
       transform="translate(0,924.4)">
      <g
         style="fill:#d47400;fill-opacity:1;stroke:none;stroke-width:129.52444458;stroke-miterlimit:4;stroke-dasharray:none"
         transform="matrix(0.00985145,0,0,-0.00985093,0.95074279,127.01146)"
         id="g4169">
        <path
           id="path4255"
           d="m 6033,12790 c -409,-27 -913,-104 -973,-149 -61,-44 -60,-36 -60,-519 l -1,-443 -22,-9 c -12,-4 -98,-31 -192,-60 -190,-58 -383,-128 -555,-203 -136,-58 -420,-199 -505,-250 l -60,-36 -310,308 c -170,170 -320,314 -332,320 -30,15 -97,14 -136,-3 -41,-17 -256,-171 -412,-295 -394,-312 -817,-735 -1126,-1126 -186,-235 -297,-397 -309,-450 -18,-78 -10,-88 325,-425 l 314,-315 -36,-60 c -51,-86 -192,-370 -250,-505 -75,-172 -145,-365 -203,-555 -29,-93 -56,-180 -60,-192 l -9,-22 -443,-1 c -485,0 -474,1 -521,-62 -34,-46 -98,-426 -134,-793 -24,-252 -24,-838 0,-1090 36,-367 100,-748 135,-794 46,-62 36,-61 520,-61 l 443,-1 9,-22 c 4,-12 31,-98 60,-192 58,-190 128,-383 203,-555 58,-136 199,-420 250,-505 l 36,-60 -308,-310 c -170,-170 -314,-320 -320,-332 -15,-30 -14,-97 3,-136 17,-41 171,-256 295,-412 312,-394 735,-817 1126,-1126 235,-186 397,-297 450,-309 78,-18 88,-10 425,325 l 315,314 60,-36 c 86,-51 370,-192 505,-250 172,-75 365,-145 555,-203 94,-29 180,-56 192,-60 l 22,-9 1,-443 c 0,-485 -1,-474 62,-521 46,-34 426,-98 793,-134 252,-24 838,-24 1090,0 367,36 748,100 794,135 62,46 61,36 61,520 l 1,443 22,9 c 12,4 99,31 192,60 190,58 383,128 555,203 136,58 420,199 505,250 l 60,36 310,-308 c 171,-170 320,-314 332,-320 30,-15 97,-14 136,3 41,17 256,171 412,295 394,312 817,735 1126,1126 186,235 297,397 309,450 18,78 10,88 -325,425 l -314,315 36,60 c 51,86 192,370 250,505 75,172 145,365 203,555 29,94 56,180 60,192 l 9,22 443,1 c 485,0 474,-1 521,62 34,46 98,426 134,793 24,252 24,838 0,1090 -36,367 -100,748 -135,794 -46,62 -36,61 -520,61 l -443,1 -9,22 c -4,12 -31,99 -60,192 -58,190 -128,383 -203,555 -58,136 -199,420 -250,505 l -36,60 308,310 c 170,171 314,320 320,332 15,30 14,97 -3,136 -17,41 -171,256 -295,412 -312,394 -735,817 -1126,1126 -235,186 -397,297 -450,309 -78,18 -88,10 -425,-325 l -315,-314 -60,36 c -86,51 -370,192 -505,250 -172,75 -365,145 -555,203 -93,29 -180,56 -192,60 l -22,9 -1,443 c 0,485 1,474 -62,521 -46,34 -432,99 -783,132 -200,19 -733,27 -922,15 z"
           style="fill:#bb6600;fill-opacity:1;stroke:none;stroke-width:349.71600342;stroke-miterlimit:4;stroke-dasharray:none;stroke-opacity:1"
           inkscape:connector-curvature="0" />
        <path
           id="path4171"
           d="m 6693,9349 c 1017,-92 1935,-737 2383,-1674 170,-355 261,-715 283,-1118 41,-739 -194,-1457 -668,-2037 -471,-578 -1145,-953 -1901,-1060 -208,-29 -572,-29 -780,0 -660,93 -1242,382 -1705,845 -463,463 -752,1045 -845,1705 -29,208 -29,572 0,780 107,756 482,1430 1060,1901 619,505 1364,731 2173,658 z"
           style="fill:#ffcc00;fill-opacity:1;stroke:none;stroke-width:349.71600342;stroke-miterlimit:4;stroke-dasharray:none;stroke-opacity:1"
           inkscape:connector-curvature="0" />
      </g>
      <g
         style="fill:#000080"
         transform="matrix(-1,0,0,1,131.90898,-4.2261287)"
         id="g4249">
        <path
           inkscape:connector-curvature="0"
           style="line-height:normal;font-family:'Bitstream Vera Sans';-inkscape-font-specification:'Bitstream Vera Sans';text-indent:0;text-align:start;text-transform:none;block-progression:tb;overflow:visible;fill:#0000cc;fill-opacity:1"
           d="m 76.942141,21.740898 27.446179,26.095637 -27.446179,26.095637 0,-17.116488 -39.802282,0 0,-17.958298 39.802282,0 z"
           id="path4140" />
        <path
           inkscape:connector-curvature="0"
           style="line-height:normal;font-family:'Bitstream Vera Sans';-inkscape-font-specification:'Bitstream Vera Sans';text-indent:0;text-align:start;text-transform:none;block-progression:tb;overflow:visible;fill:#0000cc;fill-opacity:1"
           d="m 59.164365,67.480027 -27.734769,23.577871 27.734769,23.577862 0,-15.465046 40.220797,0 0,-16.225635 -40.220797,0 z"
           id="path4140-7" />
      </g>
    </g>
  </g>
</svg>
